<?xml version="1.0" encoding="utf-8"?>
<!-- Generator: Adobe Illustrator 16.0.0, SVG Export Plug-In . SVG Version: 6.00 Build 0)  -->
<!DOCTYPE svg PUBLIC "-//W3C//DTD SVG 1.1//EN" "http://www.w3.org/Graphics/SVG/1.1/DTD/svg11.dtd">
<svg version="1.1" xmlns="http://www.w3.org/2000/svg" xmlns:xlink="http://www.w3.org/1999/xlink" x="0px" y="0px" width="128px"
	 height="128px" viewBox="0 0 128 128" enable-background="new 0 0 128 128" xml:space="preserve">
<g id="Layer_1" display="none">
	<g display="inline">
		<title>background</title>
		<rect id="canvas_background" x="-1" y="-1" fill="none" width="582" height="402"/>
	</g>
	<g display="inline">
		<title>Layer 1</title>
		<g id="svg_1">
			<g id="svg_2">
				<g>
					<defs>
						<rect id="SVGID_1_" x="-1" width="129" height="128"/>
					</defs>
					<clipPath id="SVGID_2_">
						<use xlink:href="#SVGID_1_"  overflow="visible"/>
					</clipPath>
					<path id="svg_4" clip-path="url(#SVGID_2_)" fill="#231F20" d="M-1,0v99.084h40.619l23.947,28.707l23.943-28.707h40.619V0H-1z"
						/>
				</g>
			</g>
		</g>
		<g id="svg_5">
			<g id="svg_6">
				<path id="svg_7" fill="#FFFFFF" d="M117.113,37.541L80.645,10.04c-0.972-0.731-2.311-0.731-3.281,0l-5.995,4.521l-5.994-4.521
					c-0.973-0.731-2.311-0.731-3.281,0l-5.846,4.41L50.4,10.04c-0.972-0.731-2.309-0.731-3.28,0L10.65,37.541
					c-0.682,0.515-1.083,1.32-1.083,2.176v46.305c0,1.502,1.22,2.723,2.725,2.723h103.181c1.504,0,2.725-1.221,2.725-2.723V39.717
					C118.195,38.861,117.795,38.056,117.113,37.541L117.113,37.541z M112.749,83.295h-9.822V39.717c0-0.856-0.399-1.661-1.084-2.176
					L75.895,17.975l3.108-2.348l33.746,25.448V83.295L112.749,83.295z M87.953,83.295V39.717c0-0.856-0.401-1.661-1.083-2.176
					l-26.1-19.679l2.961-2.235l33.748,25.448v42.22H87.953z M53.221,83.295h-8.922V63.54h8.922V83.295z M58.669,83.295V60.817
					c0-1.504-1.218-2.724-2.723-2.724H41.574c-1.505,0-2.725,1.22-2.725,2.724v22.478H15.014V41.073l33.745-25.446l33.747,25.446
					v42.222H58.669z"/>
			</g>
		</g>
	</g>
</g>
<g id="Layer_1_copy">
	<g>
		<title>background</title>
		<rect id="canvas_background_1_" x="-1" y="-1" fill="none" width="582" height="402"/>
	</g>
	<g>
		<title>Layer 1</title>
		<g id="svg_1_1_">
			<g id="svg_2_1_">
				<g>
					<path id="svg_4_1_" stroke="#000000" stroke-miterlimit="10" d="M0,0v98.307h40.305l23.761,28.482l23.757-28.482h40.305V0H0z"
						/>
				</g>
			</g>
		</g>
	</g>
	<path fill="#FFFFFF" stroke="#000000" stroke-miterlimit="10" d="M87.953,85.688V39.717c0-0.856-0.401-1.661-1.083-2.176
		l-20.479-15.44L54.59,13.2l-4.19-3.16c-0.972-0.731-2.309-0.731-3.28,0L10.65,37.541c-0.682,0.515-1.083,1.32-1.083,2.176v46.305
		c0,1.502,1.22,2.723,2.725,2.723c0,0,68.333,0,72.271,0C87.938,88.744,87.953,85.688,87.953,85.688z M53.221,83.295h-8.922V63.54
		h8.922V83.295z M82.506,83.295H58.669V60.817c0-1.504-1.218-2.724-2.723-2.724H41.574c-1.505,0-2.725,1.22-2.725,2.724v22.478
		H15.014V41.073l33.745-25.446l33.747,25.446V83.295z"/>
</g>
</svg>
