<?xml version="1.0" encoding="utf-8"?>
<!-- Generator: Adobe Illustrator 16.0.0, SVG Export Plug-In . SVG Version: 6.00 Build 0)  -->
<!DOCTYPE svg PUBLIC "-//W3C//DTD SVG 1.1//EN" "http://www.w3.org/Graphics/SVG/1.1/DTD/svg11.dtd">
<svg version="1.1" id="Layer_1" xmlns="http://www.w3.org/2000/svg" xmlns:xlink="http://www.w3.org/1999/xlink" x="0px" y="0px"
	 width="128px" height="128px" viewBox="0 0 128 128" enable-background="new 0 0 128 128" xml:space="preserve">
<g>
	<title>background</title>
	<g>
		<path fill="#231F20" d="M68.611,16.975L94.56,36.541c0.685,0.515,1.084,1.32,1.084,2.176v43.578h9.822v-42.22L71.72,14.627
			L68.611,16.975z"/>
		<path fill="#231F20" d="M53.486,16.862l26.101,19.679c0.682,0.515,1.083,1.32,1.083,2.176v43.578h9.525v-42.22L56.447,14.627
			L53.486,16.862z"/>
		<path fill="#231F20" d="M7.73,40.073v42.222h23.836V59.817c0-1.504,1.219-2.724,2.725-2.724h14.371
			c1.506,0,2.724,1.22,2.724,2.724v22.478h23.837V40.073L41.476,14.627L7.73,40.073z"/>
		<rect x="37.016" y="62.54" fill="#231F20" width="8.922" height="19.755"/>
		<path fill="#231F20" d="M83.637,16.789l26.193,19.752c0.682,0.515,1.082,1.32,1.085,2.176v43.578h9.33v-42.22L86.499,14.627
			L83.637,16.789z"/>
		<path fill="#231F20" d="M-1,0v99.084h40.619l23.947,28.707l23.943-28.707H128V0H-1z M125.694,85.021c0,0-0.136,2.724-2.726,2.724
			c-0.474,0-1.27,0-2.252,0c-4.39,0-12.527,0-12.527,0H5.009c-1.505,0-2.726-1.222-2.726-2.724V38.717
			c0-0.856,0.401-1.661,1.084-2.176L39.837,9.04c0.971-0.731,2.308-0.731,3.28,0l5.848,4.41l5.846-4.41
			c0.971-0.731,2.309-0.731,3.281,0l5.994,4.521L70.08,9.04c0.971-0.731,2.31-0.731,3.281,0l5.75,4.336
			c0.89-0.671,4.026-3.038,5.241-3.954c2.019-1.755,3.788-0.382,3.788-0.382s23.629,17.835,32.576,24.574
			c1.978,1.489,3.247,2.445,3.376,2.537c1.685,0.974,1.551,2.063,1.602,3.349S125.694,85.021,125.694,85.021z"/>
	</g>
	<polyline id="canvas_background_2_" fill="none" points="581,-1 581,401 -1,401 	"/>
</g>
<title>Layer 1</title>
<g id="Layer_4">
</g>
</svg>
