<?xml version="1.0" encoding="utf-8"?>
<!-- Generator: Adobe Illustrator 16.0.0, SVG Export Plug-In . SVG Version: 6.00 Build 0)  -->
<!DOCTYPE svg PUBLIC "-//W3C//DTD SVG 1.1//EN" "http://www.w3.org/Graphics/SVG/1.1/DTD/svg11.dtd">
<svg version="1.1" id="Layer_1" xmlns="http://www.w3.org/2000/svg" xmlns:xlink="http://www.w3.org/1999/xlink" x="0px" y="0px"
	 width="128px" height="128px" viewBox="0 0 128 128" enable-background="new 0 0 128 128" xml:space="preserve">
<g>
	<title  stroke="null">background</title>
	<rect id="canvas_background" x="-1" y="-1" fill="none" width="130" height="130"/>
</g>
<g>
	<title  stroke="null">Layer 1</title>
	<g id="svg_2">
		<path id="svg_3" fill="none" d="M67.363,12.587c-3.606-3.188-8.247,0-8.247,0L6.347,60.11h7.067l2.599-2.193l0.462,36.687
			c0,0,0.413,5.057,5.654,6.195h84.104c4.003,0,4.241-4.666,4.241-4.666l0.322-37.864l2.474,2.1l7.804-0.259
			C121.075,60.11,70.969,15.776,67.363,12.587z M106.233,92.736c0,0-0.055,4.299-2.412,4.307c-2.358,0.008-76.567-0.053-80.108,0
			c-2.832,0.043-2.76-4.539-2.76-4.539V55.526l38.164-33.838c0,0,3.965-4.187,8.716,0c4.751,4.187,38.401,33.838,38.401,33.838
			V92.736z"/>
		<polygon id="svg_4" fill="none" points="56.29,36.624 56.29,55.292 37.678,55.292 37.678,68.828 56.29,68.828 56.29,87.965 
			69.482,87.965 69.482,68.828 88.8,68.828 88.8,55.292 69.482,55.292 69.482,36.624 		"/>
		<path id="svg_5" fill="#8080FF" d="M64.084,2.5c-34.932,0-63.25,28.083-63.25,62.724c0,34.641,28.318,62.725,63.25,62.725
			c34.932,0,63.25-28.084,63.25-62.725C127.334,30.583,99.016,2.5,64.084,2.5z M110.431,57.902l0.044,38.23
			c0,0-0.238,4.666-4.241,4.666H22.13c-5.241-1.139-5.654-6.195-5.654-6.195l0.064-35.77l-2.256,1.276H6.347l52.769-47.522
			c0,0,4.641-3.188,8.246,0c3.606,3.189,53.712,47.522,53.712,47.522l-7.804,0.259L110.431,57.902z"/>
		<path id="svg_6" fill="#8080FF" d="M59.116,21.688L20.953,55.526v36.978c0,0-0.072,4.582,2.76,4.539
			c3.541-0.053,77.75,0.008,80.107,0s2.412-4.307,2.412-4.307v-37.21c0,0-33.65-29.651-38.4-33.838
			C63.081,17.501,59.116,21.688,59.116,21.688L59.116,21.688z M88.8,55.292V68.83H69.482v19.135H56.289V68.83H37.678V55.292h18.611
			V36.624h13.193v18.668H88.8z"/>
	</g>
</g>
<line fill="none" x1="16.476" y1="94.604" x2="16.476" y2="46.75"/>
</svg>
