<?xml version="1.0" encoding="utf-8"?>
<!-- Generator: Adobe Illustrator 16.0.0, SVG Export Plug-In . SVG Version: 6.00 Build 0)  -->
<!DOCTYPE svg PUBLIC "-//W3C//DTD SVG 1.1//EN" "http://www.w3.org/Graphics/SVG/1.1/DTD/svg11.dtd">
<svg version="1.1" id="Layer_1" xmlns="http://www.w3.org/2000/svg" xmlns:xlink="http://www.w3.org/1999/xlink" x="0px" y="0px"
	 width="128px" height="128px" viewBox="0 0 128 128" enable-background="new 0 0 128 128" xml:space="preserve">
<g>
	<title>background</title>
	<rect id="canvas_background" x="-1" y="-1" fill="none" width="130" height="130"/>
</g>
<g>
	<title>Layer 1</title>
	<rect id="svg_1" x="273.332" y="-72.833" fill="none" width="273.169" height="307.159"/>
	<g id="svg_2">
		<polygon id="svg_3" fill="#FFA31A" stroke="#FFFFFF" stroke-miterlimit="10" points="83.759,58.125 89.289,52.321 87.865,47.611 
			80.637,55.004 		"/>
		<polygon id="svg_4" fill="#FFA31A" stroke="#FFFFFF" stroke-miterlimit="10" points="81.732,41.532 77.078,39.944 71.219,45.64 
			74.449,48.679 		"/>
		<polygon id="svg_5" fill="#FFA31A" stroke="#FFFFFF" stroke-miterlimit="10" points="33.268,82.932 32.173,92.132 37.43,97.663 
			46.301,95.691 47.561,90.051 39.347,81.728 		"/>
		<polygon id="svg_6" fill="#FFA31A" stroke="#FFFFFF" stroke-miterlimit="10" points="45.261,25.733 31.352,39.616 33.733,41.998 
			36.881,39.126 38.197,40.382 35.048,43.312 38.279,46.652 42.66,42.463 44.059,43.929 39.812,48.159 42.879,51.28 45.973,48.159 
			47.424,49.719 44.412,52.731 47.534,55.825 50.643,52.826 52.133,54.319 49.067,57.386 52.161,60.453 55.775,57.03 57.226,58.508 
			53.694,62.095 56.788,65.053 59.855,61.986 61.333,63.492 58.294,66.668 61.47,69.762 64.41,66.707 65.961,68.201 63.004,71.268 
			65.988,74.416 69.273,71.268 70.766,72.764 67.576,76.004 70.697,79.044 73.48,76.289 75.018,77.898 72.176,80.55 75.298,83.644 
			78.557,80.578 79.98,82.111 76.776,85.205 79.952,88.354 83.238,85.068 84.799,86.602 81.459,89.805 84.635,92.898 87.619,89.887 
			89.234,91.365 86.141,94.486 89.453,97.772 103.227,83.727 		"/>
		<path id="svg_7" fill="#FFA31A" stroke="#FFFFFF" stroke-miterlimit="10" d="M64.167,0.583C29.05,0.583,0.583,29.05,0.583,64.167
			c0,35.117,28.467,63.583,63.583,63.583c35.117,0,63.583-28.468,63.583-63.583S99.283,0.583,64.167,0.583L64.167,0.583z
			 M86.771,22.256l8.817,2.19l8.652,8.762l2.245,8.707l-6.517,6.462l-2.246-8.707l-9.473-8.433l-7.832-2.629L86.771,22.256z
			 M49.751,98.539l-19.714,4.436l-2.19-2.025l2.19-22.015L42.852,66.12l3.56,3.614l-7.229,7.502l4.491,1.533l6.024-5.749
			l6.297,6.353l-5.695,5.859l1.534,4.764l7.338-7.393l3.286,3.23L49.751,98.539z M89.289,103.742L25.218,39.89l20.098-20.262
			l21.95,22.124l8.662-8.433l8.707,1.971l8.762,8.817l2.136,8.652l-8.487,8.543l22.287,22.343L89.289,103.742z"/>
	</g>
</g>
</svg>
