<?xml version="1.0" encoding="utf-8"?>
<!-- Generator: Adobe Illustrator 16.0.0, SVG Export Plug-In . SVG Version: 6.00 Build 0)  -->
<!DOCTYPE svg PUBLIC "-//W3C//DTD SVG 1.1//EN" "http://www.w3.org/Graphics/SVG/1.1/DTD/svg11.dtd">
<svg version="1.1" id="Layer_1" xmlns="http://www.w3.org/2000/svg" xmlns:xlink="http://www.w3.org/1999/xlink" x="0px" y="0px"
	 width="128px" height="128px" viewBox="0 0 128 128" enable-background="new 0 0 128 128" xml:space="preserve">
<g>
	<title>background</title>
	<rect id="canvas_background" x="-1" y="-1" fill="none" width="130" height="130"/>
</g>
<g>
	<title>Layer 1</title>
	<g id="svg_1">
		<path id="svg_2" fill="#00CC00" d="M34.237,61.559c-0.204-1.129-0.204-1.306,0-2.286c0.123-0.585,0.177-1.115,0.136-1.184
			c-0.068-0.122-8.053-0.149-8.557-0.027c-0.462,0.109-1.102,0.68-1.347,1.17c-0.299,0.639-0.271,1.388,0.055,2.054
			c0.367,0.762,0.938,1.061,2.176,1.129c1.375,0.068,1.551,0.123,2.014,0.517c0.395,0.326,0.585,0.816,1.115,2.789
			c0.068,0.259,0.19,0.722,0.272,1.021s0.245,0.912,0.34,1.359c0.109,0.449,0.476,1.851,0.816,3.129
			c0.354,1.266,0.708,2.652,0.816,3.061c0.462,1.851,0.612,2.436,0.789,3.129c0.123,0.408,0.312,1.116,0.435,1.564
			c0.123,0.449,0.299,1.156,0.408,1.564c0.204,0.844,0.721,2.789,1.156,4.422c0.163,0.598,0.367,1.428,0.476,1.836
			c0.095,0.408,0.286,1.115,0.408,1.564c0.122,0.449,0.312,1.156,0.408,1.564c0.762,3.306,1.238,4.421,2.299,5.414
			c1.156,1.102,1.891,1.36,4.122,1.51c2.612,0.163,43,0.081,44.047-0.095c2.109-0.354,3.401-1.538,4.259-3.905
			c0.23-0.652,0.598-1.985,0.707-2.584c0.055-0.299,0.204-0.911,0.34-1.359c0.123-0.449,0.312-1.156,0.408-1.565
			c0.109-0.408,0.285-1.088,0.395-1.496c0.108-0.407,0.381-1.456,0.612-2.312s0.544-2.054,0.707-2.652
			c0.149-0.599,0.34-1.306,0.409-1.565c0.054-0.258,0.203-0.843,0.326-1.291c0.122-0.449,0.312-1.156,0.408-1.564
			c0.094-0.408,0.312-1.238,0.476-1.837s0.353-1.306,0.408-1.564c0.067-0.259,0.312-1.197,0.544-2.067
			c0.217-0.885,0.598-2.326,0.83-3.197c1.047-3.999,1.17-4.394,1.441-4.693c0.408-0.462,0.871-0.612,2.068-0.694
			c0.992-0.068,1.197-0.123,1.633-0.476c1.129-0.898,1.033-2.625-0.191-3.591c-0.395-0.313-0.421-0.313-4.761-0.313h-4.353
			l0.026,0.408c0.014,0.217,0.068,0.871,0.123,1.441c0.122,1.388-0.123,2.626-0.803,4.054c-0.422,0.898-0.763,1.361-1.646,2.245
			c-1.674,1.673-3.334,2.394-5.482,2.394c-2.204,0-4.367-0.748-5.741-1.985c-0.571-0.517-2.054-2.354-2.054-2.558
			c0-0.041-0.19-0.34-0.408-0.666c-0.23-0.34-0.408-0.653-0.408-0.694c0-0.149-2.625-4.503-2.775-4.598
			c-0.081-0.055-4.707-0.109-10.283-0.109c-5.577,0-10.203,0.054-10.284,0.109s-0.734,1.102-1.469,2.34
			c-0.734,1.238-1.51,2.544-1.728,2.897c-0.218,0.367-0.395,0.694-0.395,0.721c0,0.272-1.619,2.177-2.271,2.666
			c-1.66,1.279-3.374,1.877-5.346,1.877c-2.272,0-3.917-0.68-5.591-2.312C35.216,64.756,34.631,63.654,34.237,61.559z
			 M80.842,81.937c0-4.788,0.041-8.884,0.081-9.101c0.109-0.545,0.871-1.36,1.429-1.523c0.477-0.137,1.129-0.096,1.7,0.122
			c0.177,0.068,0.503,0.381,0.735,0.693l0.408,0.586l-0.027,9.183l-0.041,9.195l-0.326,0.436c-0.734,0.965-2.326,1.156-3.156,0.367
			C80.814,91.119,80.842,91.418,80.842,81.937L80.842,81.937z M68.748,71.762c0.68-0.612,1.524-0.721,2.395-0.341
			c0.354,0.177,0.693,0.462,0.911,0.816l0.354,0.558v9.006c-0.014,9.971,0.027,9.48-0.885,10.202
			c-0.326,0.258-0.57,0.312-1.319,0.312c-0.816,0-0.952-0.04-1.347-0.408c-0.83-0.788-0.803-0.448-0.803-10.134
			C68.055,72.265,68.041,72.387,68.748,71.762z M55.975,71.762c0.708-0.639,1.782-0.707,2.653-0.178
			c0.258,0.164,0.571,0.518,0.721,0.816c0.258,0.504,0.272,0.83,0.272,9.373c0,9.658,0.027,9.346-0.803,10.12
			c-0.327,0.313-0.571,0.408-1.143,0.463c-0.925,0.067-1.619-0.231-2.082-0.911l-0.326-0.49v-9.087
			C55.268,72.102,55.24,72.414,55.975,71.762z M42.508,81.664l0.041-9.264l0.462-0.476c0.762-0.789,1.932-0.925,2.83-0.313
			c0.231,0.15,0.53,0.477,0.68,0.708c0.231,0.38,0.245,0.938,0.286,9.046c0.028,4.747,0,8.896-0.041,9.209
			c-0.055,0.381-0.245,0.749-0.585,1.129c-0.449,0.504-0.585,0.572-1.265,0.641c-0.952,0.095-1.646-0.205-2.108-0.912l-0.327-0.504
			L42.508,81.664z"/>
		<path id="svg_3" fill="#00CC00" d="M64.083,1C29.243,1,1,29.243,1,64.083s28.243,63.083,63.083,63.083
			s63.083-28.243,63.083-63.083S98.923,1,64.083,1z M38.985,63.572c0.734,0.762,1.347,1.088,2.598,1.401
			c0.816,0.204,1.034,0.218,1.701,0.054c1.673-0.381,2.938-1.483,4.04-3.482c0.789-1.442,3.469-5.904,3.823-6.38
			c0.19-0.258,0.53-0.49,0.87-0.585c0.816-0.245,22.839-0.245,23.657,0c0.625,0.19,1.278,0.966,1.891,2.231
			c0.19,0.367,0.367,0.708,0.422,0.748c0.04,0.041,0.245,0.34,0.421,0.68c0.191,0.34,0.707,1.225,1.143,1.973
			s0.912,1.605,1.062,1.904c0.326,0.653,1.755,2.108,2.407,2.421c0.259,0.136,0.885,0.327,1.402,0.436
			c0.815,0.163,1.047,0.163,1.781,0c0.463-0.108,1.047-0.3,1.307-0.436c0.68-0.327,1.537-1.265,1.986-2.163
			c0.34-0.667,0.393-0.925,0.393-1.877c-0.013-1.17-0.23-1.986-0.842-3.075c-0.654-1.17-0.368-2.38,0.666-2.815
			c0.531-0.231,11.427-0.258,12.516-0.027c2.162,0.435,3.985,2.149,4.543,4.258c0.816,3.034-1.279,6.475-4.258,6.952
			c-0.3,0.04-0.653,0.163-0.775,0.244c-0.203,0.149-0.504,1.171-1.102,3.632c-0.096,0.408-0.326,1.293-0.518,1.973
			c-0.177,0.667-0.367,1.374-0.408,1.564s-0.176,0.707-0.299,1.156s-0.313,1.156-0.408,1.564c-0.203,0.803-0.504,1.973-1.088,4.148
			c-0.205,0.748-0.545,2.068-0.776,2.926c-0.218,0.856-0.489,1.904-0.599,2.312c-0.122,0.408-0.299,1.088-0.394,1.496
			c-0.681,2.734-0.925,3.632-1.021,3.877c-0.068,0.149-0.178,0.544-0.259,0.884c-0.476,2.109-0.87,3.225-1.591,4.407
			c-1.348,2.218-3.089,3.578-5.388,4.218c-0.68,0.19-3.237,0.218-23.982,0.218c-24.88,0-23.561,0.027-25.057-0.626
			c-0.231-0.108-0.462-0.19-0.517-0.19c-0.299,0-2.067-1.36-2.761-2.109c-1.347-1.469-1.918-2.802-2.83-6.597
			c-0.095-0.409-0.367-1.456-0.598-2.312c-0.231-0.857-0.517-1.905-0.613-2.313c-0.095-0.408-0.286-1.115-0.408-1.564
			c-0.123-0.447-0.272-1.033-0.327-1.292c-0.068-0.259-0.258-0.966-0.421-1.564c-0.164-0.599-0.368-1.428-0.476-1.837
			c-0.096-0.407-0.286-1.115-0.408-1.563c-0.136-0.449-0.286-1.034-0.34-1.292c-0.054-0.259-0.245-0.966-0.408-1.564
			c-0.49-1.81-1.102-4.176-1.292-4.966c-0.109-0.407-0.286-1.088-0.395-1.496c-0.108-0.408-0.299-1.116-0.408-1.564
			c-0.367-1.51-0.367-1.51-1.333-1.687c-3.564-0.694-5.604-4.721-4.095-8.04c0.639-1.388,2.299-2.83,3.673-3.197
			c1.034-0.272,11.903-0.326,12.855-0.068c1.129,0.313,1.551,1.619,0.884,2.789c-0.653,1.157-0.843,1.85-0.843,3.129
			C37.788,61.94,38.032,62.579,38.985,63.572L38.985,63.572z M40.821,59.695c0.503-0.979,1.075-1.973,1.374-2.38
			c0.15-0.218,0.34-0.544,0.422-0.721c0.068-0.177,0.408-0.762,0.748-1.279c0.34-0.531,0.708-1.143,0.816-1.36
			c0.231-0.476,0.775-1.401,1.279-2.177c0.19-0.299,0.462-0.748,0.598-1.007c0.136-0.258,0.422-0.707,0.612-1.02
			c0.204-0.313,0.435-0.68,0.517-0.843c1.089-2,11.876-19.792,12.134-20.01c0.49-0.422,1.538-0.436,2.041-0.027
			c0.871,0.68,1.047,1.428,0.531,2.272c-0.163,0.272-0.381,0.653-0.476,0.843c-0.082,0.19-0.422,0.735-0.721,1.225
			c-0.558,0.857-0.911,1.456-1.469,2.476c-0.15,0.286-0.449,0.775-0.653,1.088c-0.204,0.326-0.49,0.789-0.626,1.047
			c-0.136,0.258-0.421,0.707-0.612,1.02s-0.476,0.762-0.612,1.02c-0.136,0.259-0.421,0.708-0.612,1.021
			c-0.204,0.313-0.421,0.68-0.503,0.83c-0.082,0.149-2.803,4.68-6.026,10.066c-4.38,7.305-5.972,9.862-6.271,10.039
			c-0.871,0.517-2.054,0.055-2.53-0.979C40.536,60.267,40.536,60.267,40.821,59.695z M65.471,30.163
			c0-0.395,0.108-0.599,0.543-1.034c0.504-0.503,0.6-0.544,1.266-0.544c0.53,0.014,0.803,0.082,1.062,0.313
			c0.272,0.231,2.843,4.394,5.237,8.488c0.148,0.231,1.115,1.85,2.162,3.591c1.048,1.755,1.932,3.237,1.959,3.319
			c0.027,0.068,0.312,0.53,0.626,1.021c0.313,0.489,0.612,0.979,0.653,1.088c0.095,0.204,0.163,0.327,0.789,1.292
			c0.19,0.299,0.395,0.64,0.436,0.749c0.054,0.109,0.23,0.421,0.381,0.68c4.394,7.332,6.285,10.583,6.338,10.964
			c0.109,0.64-0.189,1.251-0.789,1.633c-1.074,0.68-1.944,0.354-2.773-1.062c-0.068-0.136-0.463-0.762-0.845-1.401
			c-0.394-0.653-0.721-1.225-0.721-1.292s-0.082-0.204-0.19-0.299c-0.095-0.109-0.285-0.408-0.422-0.653
			c-0.137-0.258-0.312-0.571-0.408-0.68c-0.108-0.108-0.34-0.517-0.544-0.884c-0.19-0.381-0.53-0.952-0.748-1.292
			c-0.218-0.34-0.53-0.856-0.694-1.143c-0.148-0.299-3.142-5.319-6.651-11.155c-3.496-5.849-6.421-10.76-6.516-10.923
			C65.538,30.775,65.471,30.421,65.471,30.163L65.471,30.163z"/>
	</g>
</g>
</svg>
